
        <svg xmlns="http://www.w3.org/2000/svg" xmlns:xlink="http://www.w3.org/1999/xlink" version="1.1" width="3176.470588235294" height="1613.3614508632895" viewBox="0 0 3176.470588235294 1613.3614508632895">
			
			<g transform="scale(8.823529411764707) translate(10, 10)">
				<defs id="SvgjsDefs2683"/><g id="SvgjsG2684" featureKey="symbolFeature-0" transform="matrix(1.3214137419977405,0,0,1.3214137419977405,104.27265061538331,-10.270028016151498)" fill="#000"><g xmlns="http://www.w3.org/2000/svg"><path d="M50.073,55.658c-1.63-0.042-3.096,1.301-3.156,2.888c-0.062,1.65,1.246,3.08,2.868,3.137   c1.766,0.061,3.104-1.227,3.137-3.019C52.951,57.114,51.608,55.696,50.073,55.658z"/><path d="M33.373,40.678c1.892-1.738,4.009-3.139,6.354-4.188c0.482-0.216,0.884-0.476,0.826-1.01   c-0.029-0.884-0.737-1.263-1.584-0.879c-4.93,2.231-8.805,5.672-11.595,10.3c-0.741,1.229-1.309,2.566-1.917,3.872   c-0.276,0.595-0.027,1.181,0.509,1.421c0.501,0.225,1.042-0.01,1.337-0.587c0.062-0.122,0.101-0.251,0.152-0.377   C28.821,45.96,30.756,43.081,33.373,40.678z"/><path d="M41.792,41.019c0.455-0.205,0.825-0.479,0.788-1.053c-0.048-0.74-0.788-1.197-1.471-0.852   c-1.044,0.53-2.1,1.055-3.075,1.696c-3.632,2.386-6.249,5.621-7.888,9.644c-0.226,0.554-0.229,1.068,0.313,1.447   c0.601,0.42,1.229,0.162,1.571-0.664c0.861-2.081,1.991-3.996,3.519-5.66C37.328,43.644,39.392,42.1,41.792,41.019z"/><path d="M43.766,45.589c0.38-0.181,0.661-0.571,0.857-0.747c0-1-0.767-1.479-1.504-1.157c-1.772,0.772-3.347,1.852-4.72,3.213   c-1.572,1.559-2.805,3.353-3.588,5.426c-0.129,0.342-0.069,0.861,0.112,1.182c0.13,0.227,0.69,0.432,0.916,0.328   c0.362-0.161,0.667-0.549,0.887-0.908c0.658-1.07,1.17-2.241,1.911-3.247C39.969,47.871,41.735,46.559,43.766,45.589z"/><path d="M77.818,39.915c0.053-6.427,0.128-12.713,0.199-18.579c0.004-0.277,0.286-0.804,0.531-0.986   c2.514-1.881,3.552-4.809,2.711-7.642c-0.864-2.911-3.471-4.895-6.483-4.935c-0.005,0-0.085-0.001-0.089-0.001   c-2.967,0-5.577,1.936-6.496,4.813c-0.934,2.923,0.141,6.009,2.676,7.68c0.369,0.244,0.461,0.374,0.457,0.997   c-0.035,3.738-0.069,7.558-0.102,11.417c-6.217-5.105-13.998-7.801-22.256-7.552C31.052,25.632,16.768,40.1,16.448,58.065   c-0.161,9.095,3.219,17.652,9.517,24.1c6.291,6.438,14.742,10.012,23.796,10.062h0.192c8.992,0,17.426-3.467,23.745-9.76   c6.329-6.305,9.831-14.745,9.858-23.768C83.578,51.92,81.564,45.437,77.818,39.915z M73.311,57.655   c0.048-12.228,0.156-24.673,0.264-36.373c0.007-0.947-0.162-2.031-1.469-2.895c-1.709-1.127-2.404-3.136-1.771-5.116   c0.61-1.913,2.399-3.248,4.411-3.248l0,0c2.023,0.027,3.774,1.363,4.357,3.324c0.565,1.907-0.164,3.899-1.902,5.2   c-0.807,0.604-1.423,1.79-1.434,2.761c-0.133,11.047-0.283,23.565-0.265,35.759c0.007,3.73-1.108,6.559-3.513,8.9   c-0.732,0.715-1.45,1.444-2.17,2.174c-0.361,0.369-0.723,0.736-1.088,1.104c-0.097,0.098-0.202,0.188-0.308,0.281   c-0.524,0.461-1.694,1.489-0.981,3.101c-0.056,0.089-0.121,0.179-0.174,0.231c-1.364,1.324-2.741,2.635-4.119,3.943   c-1.152,1.096-2.303,2.191-3.447,3.295c-0.16,0.154-0.26,0.212-0.303,0.232c-0.04-0.021-0.128-0.08-0.264-0.225   c-1.105-1.174-2.248-2.342-3.222-3.328c-0.239-0.244-0.292-0.391-0.292-0.423c0.002-0.032,0.061-0.182,0.315-0.422   c3.193-3.009,5.754-5.366,7.816-7.196c0.013,0.006,0.028,0.012,0.044,0.018c0.301,0.111,0.727,0.285,1.221,0.254   c0.414,0.064,0.838-0.121,1.082-0.473c0.009-0.012,0.016-0.025,0.025-0.038c0.434-0.416,0.871-0.829,1.309-1.241   c1.143-1.078,2.324-2.192,3.434-3.357C72.479,62.208,73.3,60.108,73.311,57.655z M49.953,88.478h-0.172   c-8.043-0.045-15.549-3.217-21.134-8.934c-5.592-5.723-8.592-13.328-8.449-21.412c0.284-15.957,12.967-28.808,28.875-29.256   c0.295-0.008,0.59-0.013,0.883-0.013c8.008,0,15.514,3.106,21.137,8.747c0.031,0.031,0.059,0.065,0.09,0.096   c-0.051,6.609-0.096,13.305-0.121,19.939c-0.008,1.886-0.603,3.422-1.82,4.699c-1.068,1.123-2.228,2.215-3.348,3.273   c-0.383,0.361-0.766,0.722-1.146,1.085c-0.055-0.019-0.111-0.04-0.16-0.059c-0.264-0.099-0.592-0.222-0.977-0.222   c-0.417,0-0.804,0.146-1.117,0.424c-2.118,1.875-4.768,4.31-8.096,7.447c-0.666,0.627-1.01,1.307-1.021,2.02   c-0.014,0.711,0.303,1.398,0.939,2.043c0.963,0.977,2.094,2.133,3.183,3.291c0.587,0.623,1.226,0.939,1.899,0.939   c0.65,0,1.264-0.285,1.869-0.871c1.141-1.1,2.287-2.191,3.436-3.282c1.383-1.315,2.768-2.632,4.135-3.962   c0.016-0.014,1.455-1.461,0.752-2.594c-0.085-0.139-0.108-0.217-0.119-0.223c0.055-0.1,0.286-0.303,0.441-0.439   c0.144-0.127,0.287-0.253,0.418-0.385c0.367-0.369,0.732-0.74,1.097-1.111c0.708-0.719,1.415-1.438,2.136-2.141   c2.828-2.756,4.199-6.195,4.192-10.516c-0.005-3.066,0.001-6.153,0.015-9.233c1.34,3.423,2.051,7.087,2.039,10.858   C79.754,75.393,66.641,88.478,49.953,88.478z"/><path d="M60.738,59.89c0.304-2.977-0.553-5.842-2.414-8.066c-1.926-2.305-4.715-3.707-7.855-3.949   c-5.527-0.451-10.632,4.189-11.199,9.926c-0.278,2.815,0.838,5.988,2.915,8.281c1.969,2.172,4.638,3.369,7.516,3.369   c0,0,0,0,0.001,0c0.116,0,0.231-0.002,0.349-0.006c0.156,0.008,0.312,0.012,0.468,0.012C55.704,69.456,60.193,65.253,60.738,59.89z    M50.121,67.195l-0.051-0.003l-0.051,0.002c-0.107,0.004-0.213,0.006-0.319,0.006c-2.865,0-4.761-1.43-5.848-2.63   c-1.639-1.808-2.559-4.38-2.344-6.55c0.451-4.559,4.447-8.24,8.788-7.904c2.531,0.195,4.769,1.314,6.302,3.148   c1.468,1.758,2.145,4.029,1.902,6.396C58.057,64.03,54.32,67.425,50.121,67.195z"/></g></g><g id="SvgjsG2685" featureKey="nameFeature-0" transform="matrix(1.0125929726386529,0,0,1.0125929726386529,-2.0052486766722124,122.1426520770384)" fill="#000"><path d="M18.84 32.64 c0.24 -0.52 0.44 -1.04 0.64 -1.56 c0.44 -1.28 0.52 -2.6 0.64 -3.92 c0.24 -2.8 0.16 -5.64 -0.56 -8.36 c-0.88 -3.48 -3.12 -6.68 -6.48 -8.16 c-1.52 -0.68 -3.24 -0.76 -4.88 -0.72 c-1.72 0 -3.48 -0.08 -5.2 0.08 c-0.48 0.04 -0.72 0.28 -0.8 0.72 c-0.08 0.48 -0.16 0.96 -0.16 1.4 c0.08 2.44 0 9.68 0.08 10.88 c0.04 1.08 -0.08 2.4 -0.08 3.48 c0.04 2.68 0 5.4 0 8.08 c0 1.12 -0.04 2.2 -0.04 3.32 c0 1.2 -0.44 1.72 2.84 1.72 c2.92 0 5.96 -0.24 8.72 -1.28 c2.56 -0.92 4.16 -3.28 5.28 -5.68 z M7.2 28.48 l0 -4.8 c0 -3.04 0.08 -5 -0.04 -7.56 l0 -0.48 c0.04 -0.84 0.16 -0.88 1.04 -0.88 c1.16 -0.04 2 0.24 3 0.64 s1.56 1.28 2.08 2.12 c1 1.64 1.4 3.44 1.48 5.32 c0.04 1.08 0.08 2.16 0.08 3.24 c0 5.12 -3 8.68 -5.64 8.68 c-1.76 0 -2.04 0.12 -2.04 -1.04 c0 -1.2 0.08 -2.4 0.08 -3.6 c-0.04 -0.52 -0.04 -1.08 -0.04 -1.64 z M48.288 17.36 c0.84 2.48 1.04 5.16 1.04 7.8 c0 2.2 -0.4 4.32 -0.96 6.44 c-0.72 2.52 -1.92 4.8 -4.08 6.28 c-1.6 1.16 -3.28 1.92 -5.24 2.12 c-0.28 0 -0.52 0.04 -0.8 0.04 c-0.24 0 -0.48 -0.04 -0.76 -0.04 c-1.96 -0.2 -3.64 -0.96 -5.28 -2.12 c-2.12 -1.48 -3.36 -3.76 -4.04 -6.28 c-0.6 -2.12 -0.96 -4.24 -0.96 -6.44 c0 -2.64 0.2 -5.32 1.04 -7.8 c1.48 -4.28 5.56 -7.32 10 -7.4 c4.44 0.08 8.52 3.12 10.04 7.4 z M44.408 28.08 c0.4 -2.44 0.24 -4.92 -0.24 -7.36 c-0.48 -2.2 -1.44 -4.36 -3.28 -5.68 c-0.32 -0.24 -0.68 -0.44 -1.04 -0.56 c-0.52 -0.24 -1.08 -0.32 -1.6 -0.32 s-1.04 0.08 -1.56 0.32 c-0.4 0.12 -0.72 0.32 -1.04 0.56 c-1.88 1.32 -2.84 3.48 -3.28 5.68 c-0.48 2.44 -0.64 4.92 -0.24 7.36 c0.4 2.2 1.2 5.16 3.28 6.28 c0.88 0.48 1.84 0.8 2.84 0.84 c1 -0.04 2 -0.36 2.88 -0.84 c2.08 -1.12 2.88 -4.08 3.28 -6.28 z M56.29600000000001 16.56 c0 4.04 0.04 8.12 0.12 12.12 c0.04 2.44 0 5.2 1.16 7.44 c1.48 2.88 4.76 4.16 7.92 3.96 c2.16 -0.16 4.16 -0.72 5.72 -2.32 c2.64 -2.84 2.12 -7.28 2.16 -10.92 c0.08 -5.24 0.2 -10.12 0.2 -15.4 c0 -0.88 -0.28 -1.36 -1.16 -1.4 c-1.08 -0.04 -2.16 0 -3.24 0.08 c-0.44 0 -0.8 0.4 -0.8 0.88 c0.04 3.84 0.12 7.72 0.08 11.6 c-0.04 3.32 0.4 7 -0.84 10.16 c-0.48 1.16 -1.56 2.04 -2.84 2.04 c-3.2 -0.08 -3.08 -3.88 -3.2 -6.12 c-0.24 -4.88 0.12 -9.88 0.24 -14.76 c0 -0.92 0 -1.84 0.04 -2.76 c0.04 -0.48 0.12 -1.08 -0.52 -1.12 l-0.72 0 c-1 0.08 -2 -0.04 -3 0 c-0.96 0.08 -1.28 0.36 -1.28 1.32 c0 1.72 -0.04 3.48 -0.04 5.2 z M85.26400000000001 11.16 c0 0.56 0.12 19.52 0.12 21.84 c0 0.52 -0.12 1.04 -0.4 1.48 c-0.2 0.4 -0.6 0.88 -1.12 0.88 c-0.56 0 -1.16 -0.2 -1.72 -0.4 c-0.28 -0.16 -0.96 -0.64 -1.04 0 c-0.12 1.04 -0.44 3.68 -0.56 4.48 c0 0.2 0.52 0.28 0.6 0.32 c1.04 0.2 2.16 0.28 3.2 0.28 c1.08 0.04 2.16 -0.12 3.12 -0.68 c1.64 -0.96 2.92 -2.8 2.92 -4.8 l0.08 -22.24 c0 -0.24 0.08 -1.52 -0.08 -1.92 c-0.24 -0.64 -1.12 -0.48 -1.64 -0.48 c-0.88 0 -1.76 -0.08 -2.6 0 c-0.8 0.08 -0.88 0.32 -0.88 1.24 z M102.95200000000001 29.68 c-0.12 -4.56 -0.08 -9.4 -0.04 -13.92 c0 -1.4 -0.08 -2.92 -0.08 -4.32 c0 -1.52 -0.6 -1.44 -1.4 -1.48 c-1.16 -0.04 -1.68 -0.04 -2.84 -0.04 c-0.76 -0.04 -1.08 0.16 -1.08 0.92 c0 3.92 -0.12 15 -0.08 16.6 s0.2 8.88 0.12 10.48 c-0.04 0.56 0 1.12 0.04 1.68 c0.04 0.2 0.16 0.4 0.48 0.4 c1.32 -0.08 2.56 -0.08 3.88 -0.12 c0.48 -0.04 0.88 -0.16 1.08 -0.68 c0.04 -0.28 -0.08 -7.6 -0.08 -9.52 z M127.04000000000002 10.920000000000002 c0.12 0.56 0.04 27.2 0.04 27.88 c0 1.2 -0.44 1.16 -1.24 1.16 c-1.2 0 -2.88 0.2 -3.24 -0.2 c-0.32 -0.28 -6.24 -14.56 -7.08 -16.36 c-0.08 -0.16 -0.28 -0.56 -0.44 -0.48 c-0.2 0.08 -0.12 0.36 -0.12 0.52 c-0.04 1.4 0.2 13.48 0.2 15.4 c0 0.96 -0.04 1.12 -0.84 1.12 l-2 0 c-0.52 0 -1.16 -0.04 -1.68 0.04 c-0.4 0 -0.6 -0.12 -0.64 -0.52 l0 -3.16 c0.08 -3.36 0 -23.28 0 -24.76 c0 -1.28 0.36 -1.52 1.64 -1.52 c0.88 -0.04 1.76 -0.04 2.64 -0.04 c0.28 0 0.44 0.04 0.6 0.4 c1.08 2.52 5.68 14.08 6.4 15.48 c0.12 0.28 0.56 1.4 0.8 1.52 l0.04 0 c0.16 -0.16 0.12 -0.96 0.12 -1.2 c0 -0.6 -0.32 -14.64 -0.32 -14.92 c0 -0.4 -0.12 -0.76 0.08 -1.04 c0.12 -0.16 0.64 -0.2 0.84 -0.24 c1.12 -0.08 2.44 0.04 3.56 0 c0.56 0 0.52 0.4 0.64 0.92 z M139.92800000000003 10.04 c-0.4 0 -0.8 0.04 -1.2 0.04 c-0.6 0 -1.32 -0.12 -1.44 0.68 c-0.4 3.4 -0.76 7.16 -1.16 10.56 c-0.68 5.6 -1.32 11.36 -1.96 16.96 c-0.08 0.76 -0.16 1.48 0.68 1.64 c1.28 0.08 2.24 0.08 3.32 0.04 c0.4 0.04 0.84 0.08 0.96 -0.4 c0.08 -0.2 0.08 -0.4 0.08 -0.6 c0.08 -0.92 1.28 -12.44 1.76 -12.44 c0.76 0 2.76 9.36 3.72 12.8 c0.12 0.48 0.36 0.68 0.84 0.64 c1 -0.08 1.96 0 2.96 0 s0.8 -0.64 1 -1.48 c0.24 -0.92 2.56 -12 3.12 -12 c0.64 0 1.96 12.84 2.08 13.12 c0.24 0.56 0.92 0.32 1.4 0.32 c0.72 0 1.4 0.08 2.32 0 c0.68 -0.08 1.36 0.16 1.4 -0.72 c0 -0.2 -0.08 -0.4 -0.12 -0.6 c-0.16 -1 -0.36 -2.2 -0.56 -3.2 c-0.28 -2.08 -0.68 -4.12 -0.96 -6.2 c-0.4 -3.28 -0.8 -6.56 -1.16 -9.84 c-0.28 -2.8 -0.68 -5.96 -0.92 -8.76 c-0.08 -0.92 -1.12 -0.6 -1.76 -0.6 l-2.76 0 c-0.44 0 -0.64 0.84 -0.72 1.28 c-0.24 1.12 -3 15.56 -3.92 15.56 s-3.88 -13.2 -4.4 -16.08 c-0.12 -0.64 -0.56 -0.84 -1.16 -0.84 z M166.776 16.56 c0 4.04 0.04 8.12 0.12 12.12 c0.04 2.44 0 5.2 1.16 7.44 c1.48 2.88 4.76 4.16 7.92 3.96 c2.16 -0.16 4.16 -0.72 5.72 -2.32 c2.64 -2.84 2.12 -7.28 2.16 -10.92 c0.08 -5.24 0.2 -10.12 0.2 -15.4 c0 -0.88 -0.28 -1.36 -1.16 -1.4 c-1.08 -0.04 -2.16 0 -3.24 0.08 c-0.44 0 -0.8 0.4 -0.8 0.88 c0.04 3.84 0.12 7.72 0.08 11.6 c-0.04 3.32 0.4 7 -0.84 10.16 c-0.48 1.16 -1.56 2.04 -2.84 2.04 c-3.2 -0.08 -3.08 -3.88 -3.2 -6.12 c-0.24 -4.88 0.12 -9.88 0.24 -14.76 c0 -0.92 0 -1.84 0.04 -2.76 c0.04 -0.48 0.12 -1.08 -0.52 -1.12 l-0.72 0 c-1 0.08 -2 -0.04 -3 0 c-0.96 0.08 -1.28 0.36 -1.28 1.32 c0 1.72 -0.04 3.48 -0.04 5.2 z M199.184 9.8 c-0.76 0.04 -1.52 0.16 -2.28 0.4 c-1.64 0.56 -3.12 1.68 -4.12 3.12 c-0.88 1.32 -1.24 2.88 -1.36 4.44 c-0.08 1.2 0.04 2.44 0.6 3.52 c0.6 1.16 1.64 2.16 2.52 3.12 c0.8 0.84 1.6 1.68 2.48 2.44 c0.8 0.76 1.72 1.36 2.52 2.16 c1.16 1.16 1.6 3.8 0.76 5.24 c-1 1.6 -3.36 1.84 -4.92 1.32 c-0.8 -0.28 -1.52 -0.88 -2.2 -1.36 c-0.4 -0.28 -0.88 -0.4 -1.16 0.08 c-0.16 0.24 -0.24 0.52 -0.32 0.76 c-0.28 1 -0.64 1.92 -0.68 3 c-0.04 1.24 2.32 1.6 3.2 1.8 c3.92 0.92 8.64 0.2 10.68 -3.68 c0.4 -0.8 0.68 -1.64 0.84 -2.52 c0.04 -0.32 0.08 -0.6 0.08 -0.92 c0.16 -2.56 -0.88 -4.72 -2.44 -6.64 c-1.68 -2.08 -3.8 -3.52 -5.76 -5.32 c-1.2 -1.12 -1.64 -2.88 -1.28 -4.48 c0.36 -1.72 2.32 -2.16 3.8 -1.72 c0.44 0.12 0.8 0.32 1.2 0.56 c0.24 0.12 0.48 0.28 0.8 0.28 c0.56 0.04 0.64 -0.4 0.76 -0.84 c0.28 -1 0.76 -1.8 0.96 -2.76 c0.2 -1.08 -0.68 -1.28 -1.56 -1.56 c-1.04 -0.28 -2.04 -0.48 -3.12 -0.44 z M218.312 29.68 c-0.12 -4.56 -0.08 -9.4 -0.04 -13.92 c0 -1.4 -0.08 -2.92 -0.08 -4.32 c0 -1.52 -0.6 -1.44 -1.4 -1.48 c-1.16 -0.04 -1.68 -0.04 -2.84 -0.04 c-0.76 -0.04 -1.08 0.16 -1.08 0.92 c0 3.92 -0.12 15 -0.08 16.6 s0.2 8.88 0.12 10.48 c-0.04 0.56 0 1.12 0.04 1.68 c0.04 0.2 0.16 0.4 0.48 0.4 c1.32 -0.08 2.56 -0.08 3.88 -0.12 c0.48 -0.04 0.88 -0.16 1.08 -0.68 c0.04 -0.28 -0.08 -7.6 -0.08 -9.52 z M241.16000000000003 14.719999999999999 c0.04 -1.32 0 -2.4 0 -3.68 c0 -1.48 -2.68 -1.32 -3.64 -1.28 c-4.28 0.28 -8.36 3 -10.32 6.72 c-0.56 1.08 -0.96 2.2 -1.24 3.36 c-0.68 2.72 -0.72 5.6 -0.4 8.36 c0.28 2.6 0.96 5.2 2.56 7.28 c2.76 3.64 7.84 4.92 12.2 4.24 c0.2 -0.04 0.4 -0.08 0.56 -0.2 c0.12 -0.08 0.24 -0.24 0.24 -0.4 l0.12 -2.28 c0.04 -0.72 0 -0.68 0 -1.4 c0 -0.96 -2 -0.24 -3.24 -0.24 c-1.2 0 -2.48 -0.04 -3.56 -0.6 c-1.92 -1.08 -3 -3.24 -3.6 -5.28 c-0.68 -2.2 -0.84 -4.56 -0.44 -6.8 c0.48 -2.92 1.88 -6.28 4.96 -7.28 c1.76 -0.6 3.64 -0.4 5.4 -0.2 c0.24 0.04 0.4 -0.12 0.4 -0.32 z M253.16800000000003 37.48 c0 -1.24 -0.96 -2.36 -2.24 -2.48 c-2.72 -0.28 -3.8 3.72 -1.32 4.8 c1 0.44 2.24 0.16 2.92 -0.64 c0.44 -0.48 0.64 -1.08 0.64 -1.68 z M275.93600000000004 14.719999999999999 c0.04 -1.32 0 -2.4 0 -3.68 c0 -1.48 -2.68 -1.32 -3.64 -1.28 c-4.28 0.28 -8.36 3 -10.32 6.72 c-0.56 1.08 -0.96 2.2 -1.24 3.36 c-0.68 2.72 -0.72 5.6 -0.4 8.36 c0.28 2.6 0.96 5.2 2.56 7.28 c2.76 3.64 7.84 4.92 12.2 4.24 c0.2 -0.04 0.4 -0.08 0.56 -0.2 c0.12 -0.08 0.24 -0.24 0.24 -0.4 l0.12 -2.28 c0.04 -0.72 0 -0.68 0 -1.4 c0 -0.96 -2 -0.24 -3.24 -0.24 c-1.2 0 -2.48 -0.04 -3.56 -0.6 c-1.92 -1.08 -3 -3.24 -3.6 -5.28 c-0.68 -2.2 -0.84 -4.56 -0.44 -6.8 c0.48 -2.92 1.88 -6.28 4.96 -7.28 c1.76 -0.6 3.64 -0.4 5.4 -0.2 c0.24 0.04 0.4 -0.12 0.4 -0.32 z M304.064 17.36 c0.84 2.48 1.04 5.16 1.04 7.8 c0 2.2 -0.4 4.32 -0.96 6.44 c-0.72 2.52 -1.92 4.8 -4.08 6.28 c-1.6 1.16 -3.28 1.92 -5.24 2.12 c-0.28 0 -0.52 0.04 -0.8 0.04 c-0.24 0 -0.48 -0.04 -0.76 -0.04 c-1.96 -0.2 -3.64 -0.96 -5.28 -2.12 c-2.12 -1.48 -3.36 -3.76 -4.04 -6.28 c-0.6 -2.12 -0.96 -4.24 -0.96 -6.44 c0 -2.64 0.2 -5.32 1.04 -7.8 c1.48 -4.28 5.56 -7.32 10 -7.4 c4.44 0.08 8.52 3.12 10.04 7.4 z M300.184 28.08 c0.4 -2.44 0.24 -4.92 -0.24 -7.36 c-0.48 -2.2 -1.44 -4.36 -3.28 -5.68 c-0.32 -0.24 -0.68 -0.44 -1.04 -0.56 c-0.52 -0.24 -1.08 -0.32 -1.6 -0.32 s-1.04 0.08 -1.56 0.32 c-0.4 0.12 -0.72 0.32 -1.04 0.56 c-1.88 1.32 -2.84 3.48 -3.28 5.68 c-0.48 2.44 -0.64 4.92 -0.24 7.36 c0.4 2.2 1.2 5.16 3.28 6.28 c0.88 0.48 1.84 0.8 2.84 0.84 c1 -0.04 2 -0.36 2.88 -0.84 c2.08 -1.12 2.88 -4.08 3.28 -6.28 z M317.87200000000007 10.04 c-0.4 0 -0.8 0.04 -1.2 0.04 c-0.6 0 -1.32 -0.12 -1.44 0.68 c-0.4 3.4 -0.76 7.16 -1.16 10.56 c-0.68 5.6 -1.32 11.36 -1.96 16.96 c-0.08 0.76 -0.16 1.48 0.68 1.64 c1.28 0.08 2.24 0.08 3.32 0.04 c0.4 0.04 0.84 0.08 0.96 -0.4 c0.08 -0.2 0.08 -0.4 0.08 -0.6 c0.08 -0.92 1.28 -12.44 1.76 -12.44 c0.76 0 2.76 9.36 3.72 12.8 c0.12 0.48 0.36 0.68 0.84 0.64 c1 -0.08 1.96 0 2.96 0 s0.8 -0.64 1 -1.48 c0.24 -0.92 2.56 -12 3.12 -12 c0.64 0 1.96 12.84 2.08 13.12 c0.24 0.56 0.92 0.32 1.4 0.32 c0.72 0 1.4 0.08 2.32 0 c0.68 -0.08 1.36 0.16 1.4 -0.72 c0 -0.2 -0.08 -0.4 -0.12 -0.6 c-0.16 -1 -0.36 -2.2 -0.56 -3.2 c-0.28 -2.08 -0.68 -4.12 -0.96 -6.2 c-0.4 -3.28 -0.8 -6.56 -1.16 -9.84 c-0.28 -2.8 -0.68 -5.96 -0.92 -8.76 c-0.08 -0.92 -1.12 -0.6 -1.76 -0.6 l-2.76 0 c-0.44 0 -0.64 0.84 -0.72 1.28 c-0.24 1.12 -3 15.56 -3.92 15.56 s-3.88 -13.2 -4.4 -16.08 c-0.12 -0.64 -0.56 -0.84 -1.16 -0.84 z"/></g>
			</g>
		</svg>
	